<?xml version="1.0" encoding="utf-8" ?><svg xmlns="http://www.w3.org/2000/svg" xmlns:xlink="http://www.w3.org/1999/xlink" width="1536" height="1024" viewBox="0 0 1536 1024"><path fill="white" d="M0 0L1536 0L1536 1024L0 1024L0 0Z"/><path fill="#001731" d="M207.408 209.682C260.262 208.728 313.435 210.161 366.324 209.471C373.409 209.379 380.96 209.329 388.004 210.008C395.118 210.638 402.088 212.39 408.655 215.201C425.499 222.247 438.801 235.775 445.563 252.739C459.908 289.263 440.81 326.409 404.874 340.131L400.424 341.322C396.939 340.876 369.237 308.993 364.739 304.017C377.434 304.045 391.852 305.814 401.512 296.524C406.782 291.442 409.849 284.493 410.051 277.173C410.159 269.662 407.208 262.429 401.877 257.137C391.874 247.178 379.86 249.072 366.869 248.892C357.872 248.768 348.839 248.89 339.838 248.895L242.2 248.871C237.735 244.082 207.966 212.986 207.408 209.682Z"/><path fill="#001731" d="M252.974 622.793L253.552 622.772C279.711 621.913 309.537 622.32 335.865 622.628C371.396 623.045 410.88 615.802 438.679 642.201C452.321 655.086 460.179 672.94 460.466 691.706C460.574 710.169 453.281 727.905 440.216 740.947C421.16 760.118 403.067 760.755 378.563 760.771C375.08 760.805 371.816 760.651 368.587 759.198C364.618 757.412 361.355 753.744 359.758 749.723C358.019 745.341 358.048 740.128 360.063 735.831C367.374 720.235 391.443 728.076 405.467 722.45C413.046 719.41 419.293 714.021 422.46 706.397C425.922 698.059 426.337 687.407 422.754 679.053C418.955 670.195 410.7 663.034 401.517 660.208C391.21 657.036 377.927 658.521 367.098 658.529C349.209 658.541 257.336 660.697 248.8 656.943C244.442 655.026 240.923 650.717 239.431 646.239C237.917 641.672 238.282 636.69 240.446 632.392C243.393 626.572 247.141 624.726 252.974 622.793Z"/><path fill="#001731" d="M572.808 679.233L614.005 679.099C622.053 679.09 634.449 678.737 642.13 679.805C647.544 680.505 652.793 682.153 657.637 684.671C667.945 689.99 675.635 699.289 678.925 710.415C682.344 721.71 681.143 733.901 675.587 744.312C668.891 756.642 659.643 761.823 646.849 765.62C651.83 770.834 678.127 797.366 678.624 800.806C681.731 822.336 663.609 821.922 649.818 803.452C640.149 790.503 620.149 775.082 611.034 760.727C608.893 757.354 611.279 751.597 612.706 748.716C623.333 739.278 641.407 749.117 651.543 737.896C661.805 726.231 655.975 704.101 639.028 703.034C621.442 701.926 601.201 701.936 583.529 702.737C583.081 718.064 585.034 803.159 582.489 809.682C581.273 812.8 578.849 815.342 575.684 816.508C572.496 817.682 568.812 817.409 565.797 815.866C562.878 814.387 560.732 811.728 559.903 808.561C559.336 806.329 559.445 801.883 559.456 799.457C559.629 763.885 558.993 728.26 559.751 692.703C559.928 684.425 565.428 680.657 572.808 679.233Z"/><path fill="#001731" d="M751.362 679.245C777.888 678.845 808.535 679.009 835.434 679.436C847.369 679.625 851.226 693.608 839.05 702.235C832.331 702.84 824.458 702.356 817.634 702.528C798.646 703.006 777.406 701.604 758.641 702.848C758.081 712.138 758.504 726.934 758.509 736.581L800.455 736.455C807.547 736.434 823.807 735.054 828.973 739.26C831.516 741.34 833.072 744.39 833.265 747.67C834.081 763.388 810.668 759.834 800.611 759.809L758.583 759.739C758.01 768.239 758.426 784.866 758.633 793.62C779.71 794.214 801.17 793.383 822.272 793.655C825.983 793.703 830.406 793.302 834.001 793.656C836.167 793.874 838.278 794.474 840.236 795.429C853.582 801.99 846.062 816.257 835.917 816.678C810.744 817.724 783.999 816.711 758.778 817.151C740.243 817.474 734.454 811.594 734.508 793.482C734.601 762.37 734.195 730.968 734.592 699.83C734.743 687.184 738.231 681.029 751.362 679.245Z"/><path fill="#005EFE" d="M270.049 304.002L332.339 303.9C369.013 343.882 406.605 384.106 442.75 424.48C422.3 424.761 401.195 424.554 380.702 424.577C357.582 399.879 334.645 375.009 311.895 349.971C298.752 335.674 282.32 318.693 270.049 304.002Z"/><path fill="#005EFE" d="M274.053 718.82C282.585 718.198 288.764 718.628 295.122 725.013C325.592 755.61 355.778 786.547 385.947 817.444C387.576 819.112 392.237 825.004 392.85 827.207C396.851 841.592 390.144 851.953 376.587 856.845C369.609 857.723 361.558 856.561 356.38 851.377C325.511 820.468 294.987 789.319 264.551 757.966C257.29 750.486 253.676 742.308 258.218 731.972C261.327 724.897 266.95 721.343 274.053 718.82Z"/><path fill="#001731" d="M565.463 269.452C581.892 268.622 599.635 269.339 616.444 269.302C640.842 269.248 676.89 263.659 683.548 295.545C688.719 320.313 678.659 337.337 653.789 342.689C664.418 354.541 675.867 366.926 686.012 379.096L659.14 379.156L626.569 342.705L609.328 342.74C600.46 342.629 591.591 342.674 582.725 342.874C582.132 353.488 582.506 368.237 582.474 379.154C575.145 379.207 567.618 379.055 560.272 378.995C560.155 364.57 558.753 348.794 560.347 334.521C560.806 330.403 561.923 327.024 565.779 324.919C579.144 317.622 645.03 329.384 657.625 318.731C661.041 315.842 662.479 311.691 662.632 307.342C662.813 302.185 661.88 297.388 658.163 293.556C655.703 291.021 652.69 289.735 649.272 289.153C640.987 287.743 630.634 288.848 622.146 288.849L560.272 288.906C560.363 280.323 557.381 274.572 565.463 269.452Z"/><path fill="#001731" d="M1111.21 679.131C1131.02 678.154 1134.91 692.958 1142.34 707.958L1160.24 744.304L1177.93 780.292C1180.98 786.458 1189.77 801.195 1188.51 807.664C1187.86 810.95 1185.89 813.825 1183.07 815.619C1180.15 817.432 1176.91 817.814 1173.7 816.886C1167.63 815.096 1165.17 809.736 1162.82 804.524C1158.95 795.94 1154.71 787.443 1150.6 779.004L1114.76 706.228L1114.49 705.918C1114.16 705.917 1113.83 705.917 1113.49 705.916C1095.2 741.056 1079.35 777.719 1060.51 812.525C1054.95 822.788 1033.56 815.074 1040.03 801.047C1048.91 781.811 1058.69 762.947 1068.04 743.923L1085.31 708.802C1092.23 694.768 1094.72 682.812 1111.21 679.131Z"/><path fill="#001731" d="M1270.4 740.357C1280.2 727.914 1290.47 715.291 1300.76 703.061C1306.93 695.726 1318.31 676.848 1329.11 679.252C1337.53 681.128 1340.45 691.013 1335.48 697.862C1326.13 710.744 1315.24 723.105 1305 735.445C1297.49 744.515 1289.91 753.53 1282.27 762.487C1282.37 771.454 1289.43 832.719 1262.58 814.493C1255.46 809.66 1258.07 772.877 1258.12 762.387C1249.91 752.7 1204.15 700.94 1201.99 693.008C1201.3 690.476 1201.73 687.528 1203.04 685.272C1205.13 681.684 1208.42 680.166 1212.19 679.017C1214.29 679.062 1218.72 679.429 1220.27 680.857C1226.9 686.97 1232.78 694.773 1238.49 701.737C1248.99 714.719 1259.63 727.593 1270.4 740.357Z"/><path fill="#001731" d="M1127.94 269.451C1142.56 268.72 1144.42 268.584 1151.86 281.479C1170.7 314.111 1191.09 346.158 1209.5 379.019L1184.53 379.189C1170.29 352.964 1152.94 324.613 1137.65 298.691C1136.36 296.79 1136 295.44 1134.21 294.995C1128.51 303.412 1121.47 316.198 1116.11 325.319L1084.55 379.243C1076.32 378.974 1067.73 379.147 1059.46 379.201C1077.5 345.509 1100.83 311.718 1119.47 278.065C1121.9 273.675 1123.49 271.813 1127.94 269.451Z"/><path fill="#001731" d="M910.727 679.002C917.466 678.833 923.825 682.246 924.345 689.399C925.164 700.669 924.798 712.449 924.782 723.747L924.737 793.649C935.948 793.826 990.553 792.348 996.546 795.072C999.228 796.302 1001.3 798.561 1002.3 801.338C1005.1 808.969 1000.78 814.488 993.792 816.987C978.396 817.023 918.715 819.085 908.959 814.815C905.414 813.264 902.739 809.561 901.447 805.976C899.14 799.576 899.813 705.462 900.389 693.493C900.515 690.886 900.557 687.807 901.767 685.438C903.708 681.636 906.911 680.253 910.727 679.002Z"/><path fill="#001731" d="M749.762 313.745C782.682 312.897 818.383 313.599 851.513 313.615L851.432 333.226C825.348 333.318 789.571 332.03 764.367 333.508C764.26 341.847 764.257 350.188 764.357 358.527C773.35 359.443 787.659 358.988 797.063 358.959L855.062 358.971L854.996 379.136C821.135 378.591 786.075 380.09 752.211 378.662C744.651 377.294 742.265 376.072 742.043 368.014C741.766 355.408 742.589 342.699 742.136 330.098C741.818 321.265 741.269 317.826 749.762 313.745Z"/><path fill="#001731" d="M1216.7 269.331L1243.47 269.285C1255.94 284.387 1268.5 299.411 1281.15 314.356C1293.71 300.098 1306.59 284.003 1318.8 269.303L1345.57 269.33L1315.82 305.644C1308.56 315.083 1299.9 324.653 1292.36 334.288L1292.33 379.21C1284.89 379.063 1277.45 379.048 1270.01 379.164L1269.91 333.925C1251.96 312.577 1234.22 291.044 1216.7 269.331Z"/><path fill="#001731" d="M909.676 269.301L931.633 269.297C932.123 298.778 931.115 329.093 931.966 358.45C938.387 359.358 953.695 358.996 960.768 358.991L1014.65 358.917L1014.59 377.944C1012.47 380.016 977.405 378.971 970.412 379.054C953.892 379.248 936.806 379.277 920.246 379.038C915.393 378.968 910.478 376.345 909.946 370.963C909.289 360.335 909.601 349.482 909.609 338.81L909.676 269.301Z"/><path fill="#001731" d="M746.778 269.423C780.501 268.222 820.787 269.289 855.032 269.284C854.988 273.492 856.032 284.31 854.276 288.211C853.937 288.964 852.564 288.801 851.437 288.89L742.188 288.846C741.892 281.247 739.906 273.951 746.778 269.423Z"/></svg>