<?xml version="1.0" encoding="utf-8" ?><svg xmlns="http://www.w3.org/2000/svg" xmlns:xlink="http://www.w3.org/1999/xlink" width="1536" height="1024" viewBox="0 0 1536 1024"><path fill="#FEFEFD" d="M0 0L1536 0L1536 1024L0 1024L0 0Z"/><path fill="#2C2C2C" d="M313.838 403.98L385.187 403.878C407.791 403.87 431.35 401.477 451.64 413.088C467.1 421.903 478.428 436.497 483.137 453.662C487.654 470.218 485.416 487.891 476.913 502.797C466.507 520.877 450.863 530.092 431.317 535.279L469.808 574.125C476.806 581.219 484.173 588.222 490.395 595.948C498.685 606.243 489.033 620.456 477.004 620.354C468.484 620.282 463.04 613.031 457.585 607.369L407.39 556.413C400.177 549.113 391.152 541.796 385.008 533.658C382.521 530.364 380.629 526.292 380.34 522.137C380.049 517.965 381.383 513.258 384.297 510.204C391.829 502.31 406.781 505.189 416.647 504.685C427.029 504.154 437.078 500.515 444.088 492.582C450.257 485.601 452.78 476.755 452.209 467.504C451.438 455.019 442.234 442.703 430.543 438.305C416.4 432.985 345.002 435.512 325.974 435.574C317.807 435.601 308.729 436.373 300.694 434.985C297.427 434.42 294.283 433.423 291.822 431.086C288.66 428.082 287.094 423.894 287.123 419.577C287.151 415.34 288.895 411.047 291.997 408.135C297.696 402.786 306.651 403.94 313.838 403.98Z"/><path fill="#2C2C2C" d="M777.931 468.25C790.167 467.02 803.176 467.816 815.488 467.827C823.285 467.834 838.922 466.619 845.974 468.143C847.499 468.472 848.686 469.232 849.722 470.392C851.066 471.897 852.026 474.214 851.909 476.236C851.085 490.476 790.509 477.696 780.598 486.288C777.624 490.986 778.507 499.729 778.566 505.51C787.632 505.614 835.742 503.641 839.992 507.437C841.847 509.094 842.59 511.441 842.785 513.843C842.879 515.002 842.154 516.449 841.356 517.26C839.385 519.264 836.361 520.172 833.641 520.59C822.554 522.292 799.427 520.815 787.08 520.749L778.622 520.885C778.648 526.521 777.253 535.445 780.323 540.354C784.908 547.683 833.309 541.961 844.12 544.376C846.831 544.981 849.82 546.187 851.201 548.765C852.078 550.405 851.915 552.525 851.327 554.234C850.664 556.162 849.439 557.357 847.59 558.166C843.189 560.092 791.842 559.894 783.644 559.25C780.144 558.975 776.673 558.326 773.422 556.965C769.156 555.179 765.825 551.321 764.199 547.019C761.263 539.253 761.269 486.481 764.741 478.959C767.516 472.947 771.987 470.475 777.931 468.25Z"/><path fill="#2C2C2C" d="M608.927 468.189C622.872 466.889 653.687 467.335 667.694 468.313C699.946 470.566 707.288 518.258 671.434 529.295C675.846 533.6 682.686 540.552 686.88 544.775C696.665 554.627 684.478 562.514 679.562 558.647C669.752 550.931 659.457 539.497 650.508 530.33L635.372 530.348C634.378 530.332 627.867 530.21 627.231 530.387C614.207 534.011 624.63 550.294 618.778 557.636C614.884 560.377 607.977 559.458 605.987 556.075C603.713 552.209 604.203 534.751 604.905 530.525C609.486 501.266 656.913 524.179 672.992 511.377C682.755 503.605 680.812 485.103 665.026 483.746C649.352 482.398 633.963 483.266 618.257 483.227C607.424 483.2 598.147 477.891 608.927 468.189Z"/><path fill="#2C2C2C" d="M1090.41 468.116C1095.14 467.545 1099.74 467.696 1102.34 472.449C1114.3 494.293 1125.35 516.686 1136.83 538.792C1138.39 541.81 1140.45 545.63 1141.51 548.826C1142.13 550.72 1142.18 552.754 1141.66 554.677C1139.65 562.288 1128.81 558.748 1126.23 553.872C1123.64 548.994 1121.46 543.777 1118.9 538.811L1095.18 493.173L1094.51 492.235C1091.35 492.827 1065.07 550.681 1059.24 556.655C1051.89 564.198 1043.85 554.233 1045.82 550.713C1053.43 537.117 1080.77 474.746 1090.41 468.116Z"/><path fill="#2C2C2C" d="M915.707 467.404C916.838 467.609 917.984 467.828 919.07 468.216C932.008 472.839 919.448 526.175 925.868 538.954C931.613 550.389 980.718 539.655 993.441 544.948C995.538 545.82 997.344 547.425 998.024 549.645C998.634 551.636 998.153 553.766 997.112 555.521C995.736 557.841 993.899 558.53 991.401 559.196C977.397 559.605 929.965 561.492 919.184 556.79C915.115 555.015 912.678 552.873 911.051 548.659C909.75 545.207 908.932 541.591 908.619 537.915C907.6 525.76 907.851 485.491 909.421 471.662C909.616 469.945 913.755 468.157 915.707 467.404Z"/><path fill="#2C2C2C" d="M1257.1 467.376C1260.76 467.921 1265.29 469.504 1265.79 473.798C1265.99 475.568 1265.6 477.354 1264.67 478.876C1261.03 484.864 1235.65 511.808 1229.2 519.449C1229.17 525.272 1230.76 554.113 1226.6 557.065C1208.2 570.12 1213.19 529.85 1213.25 519.429C1209.69 515.239 1205.75 510.928 1202.09 506.793C1194.86 498.877 1179.8 485.033 1176.84 474.503C1175.4 469.37 1184.92 465.762 1188.65 469.191C1200.3 479.899 1210.42 492.576 1221.28 504.245C1226.88 497.613 1250.54 469.782 1257.1 467.376Z"/><path fill="#2C2C2C" d="M299.16 505.027C312.514 504.208 339.124 504.147 352.273 505.323C366.639 506.609 372.756 527.551 353.987 536.169C345.081 536.936 335.125 536.373 325.266 536.512C313.11 536.684 284.565 539.794 287.029 519.582C287.958 511.967 292.333 508.105 299.16 505.027Z"/></svg>