<?xml version="1.0" encoding="utf-8" ?><svg xmlns="http://www.w3.org/2000/svg" xmlns:xlink="http://www.w3.org/1999/xlink" width="1254" height="1254" viewBox="0 0 1254 1254"><path fill="white" d="M0 0L1254 0L1254 1254L0 1254L0 0Z"/><path fill="#061C35" d="M821.299 523.845C831.918 523.676 842.73 523.737 853.366 523.695C853.071 588.643 854.022 654.294 853.197 719.15C846.45 719.058 839.466 719.163 832.7 719.187C786.081 674.429 738.464 628.637 691.255 584.681C691.245 597.721 691.865 716.493 690.669 718.929L689.302 719.161L657.763 719.178L657.746 558.649L679.046 524.04C695.358 538.406 714.242 557.665 730.343 573.055L819.539 658.003C820.432 625.117 819.149 590.898 819.677 557.887C819.765 552.375 819.185 527.871 820.152 524.291L821.299 523.845Z"/><path fill="#1173FD" d="M407.443 523.804C418.67 523.697 429.897 523.659 441.124 523.691L494.023 608.667C502.845 622.992 513.364 639.388 521.348 653.916C547.347 609.982 575.308 567.183 602.1 523.746C616.164 523.72 630.884 523.48 644.893 523.935L616.476 568.661C608.296 582.958 596.283 600.906 587.328 615.1L521.342 719.324C509.858 699.894 496.385 679.949 484.379 660.641C455.989 614.984 426.44 569.693 398.278 523.928L407.443 523.804Z"/><path fill="#061C35" d="M330.933 524.112C332.938 526.221 338.811 535.893 340.622 538.715C347.323 549.157 353.832 559.805 360.608 570.203L456.873 719.008L415.099 719.149L331.286 588.756C328.325 590.684 253.659 708.463 247.146 719.182C233.723 718.78 218.579 719.082 205.032 719.045L330.933 524.112Z"/><path fill="#061C35" d="M891.545 523.813C922.63 523.465 953.807 523.915 984.898 523.751C996.79 523.688 1010 523.544 1021.56 526.177C1037.53 529.785 1051.39 539.651 1060.02 553.564C1083.55 591.657 1061.78 648.039 1015.6 652.744C997.033 654.637 978.937 653.763 960.253 653.765C952.238 653.766 942.404 652.802 935.28 657.306C921.211 667.37 929.953 702.877 926.948 718.472L925.912 719.029L893.412 719.192C893.455 705.607 893.138 691.998 893.409 678.416C893.664 665.593 896.868 653.473 905.114 643.403C936.619 604.928 1001.09 640.374 1027.23 614.382C1034.08 607.57 1036.75 598.352 1036.84 588.93C1036.94 578.856 1033.84 569.762 1026.48 562.617C1021.91 558.171 1015.25 555.066 1008.96 553.952C998.673 552.132 982.95 553.328 972.259 553.318L891.431 553.352C891.388 543.587 891.223 533.549 891.545 523.813Z"/></svg>